<svg width="421" height="99" viewBox="0 0 421 99" fill="none" xmlns="http://www.w3.org/2000/svg">
<g clip-path="url(#clip0)">
<path d="M119.057 58.0618C119.219 62.4086 121.333 64.8234 125.561 65.1454V73.6779C113.854 73.356 108 68.2043 108 58.0618H119.057ZM145.397 61.1207C145.397 69.3312 139.706 73.5169 128.325 73.8389V65.3064C132.064 64.9844 134.016 63.6965 134.016 61.2817C133.69 59.5108 132.715 58.0618 131.089 56.7739C125.561 52.4272 120.357 48.7244 115.479 45.5046C111.902 42.9287 109.789 39.3869 109.138 35.0402C109.138 26.8296 114.504 22.6439 125.398 22.3219V30.6934C122.309 31.0154 120.683 32.1423 120.52 34.3962C120.195 36.3281 120.845 37.616 122.146 38.582C127.999 42.6067 132.227 45.3436 134.666 47.1145C135.804 47.9194 136.78 48.5634 137.43 49.0464C138.081 49.5293 138.406 49.6903 138.568 49.8513C143.121 52.9101 145.397 56.7739 145.397 61.1207ZM133.365 36.6501C133.365 33.1083 131.739 31.1764 128.325 30.6934V22.3219C139.381 22.6439 144.91 27.4736 144.91 36.6501H133.365Z" fill="#231F20"/>
<path d="M149.139 23.127H160.033V72.8731H149.301V23.127H149.139ZM173.853 52.4273V69.4923L161.333 44.3777V26.9907L173.853 52.4273ZM175.317 23.127H186.211V72.8731H175.317V23.127Z" fill="#231F20"/>
<path d="M190.436 35.8452C190.436 26.9907 195.964 22.322 207.183 22V30.0495C203.931 30.3715 202.305 32.1424 202.305 35.3622V60.3158C202.305 63.5356 203.931 65.4675 207.183 65.6285V73.678C196.126 73.356 190.436 68.3653 190.436 58.5449V35.8452ZM214.337 35.5232C214.337 32.1424 212.711 30.3715 209.297 30.2105V22C220.679 22 226.37 26.8297 226.37 36.1672V59.0279C226.37 68.6873 220.679 73.678 209.297 74V65.9505C212.711 65.6285 214.337 63.8576 214.337 60.6378V35.5232Z" fill="#231F20"/>
<path d="M237.59 23.1269L247.021 72.8731H238.566L226.371 23.1269H237.59ZM250.436 23.1269H260.191L271.573 72.8731H262.468L255.151 38.2601L248.647 68.6873L244.582 48.2415L250.436 23.1269ZM272.874 67.7214L268.159 47.7585L273.037 22.9659H284.093L272.874 67.7214Z" fill="#231F20"/>
<path d="M286.369 23.127H297.914V72.8731H286.369V23.127ZM303.93 43.2508C307.669 43.2508 309.295 41.1579 309.295 37.2941C309.295 33.2694 307.507 31.3375 303.93 31.3375H300.027V23.127H303.604C315.312 23.127 321.165 27.6347 321.165 36.4892C321.165 42.9288 318.889 46.6316 314.336 47.4366C319.214 48.5635 321.653 52.5883 321.978 59.3499C321.978 68.3653 316.124 73.0341 304.417 73.0341H300.027V64.6626H304.255C308.157 64.6626 310.108 62.5697 310.108 58.3839C310.108 53.8762 307.995 51.6223 303.93 51.7833H300.027V43.4118H303.93V43.2508Z" fill="#231F20"/>
<path d="M341.001 73.839C329.945 73.517 324.254 68.5263 324.254 58.7059V23.127H336.124V60.4768C336.124 63.6966 337.75 65.6285 341.001 65.7895V73.839ZM342.953 65.7895C346.367 65.4675 347.993 63.6966 347.993 60.4768V23.127H360.025V59.0279C360.025 68.6873 354.334 73.678 342.953 74V65.7895Z" fill="#231F20"/>
<path d="M374.66 58.0619C374.823 62.4087 376.937 64.8235 381.164 65.1455V73.678C369.457 73.1951 363.604 68.0434 363.604 57.9009H374.66V58.0619ZM400.838 61.1208C400.838 69.3313 395.147 73.517 383.766 73.839V65.3065C387.505 64.9845 389.457 63.6966 389.457 61.2817C389.131 59.5109 388.156 58.0619 386.53 56.774C381.001 52.4273 375.798 48.7245 370.92 45.5047C367.506 42.7678 365.392 39.226 364.742 34.8793C364.742 26.6688 370.107 22.483 381.001 22.161V30.5325C377.912 30.8545 376.286 31.9814 376.124 34.2353C375.798 36.1672 376.449 37.4551 377.75 38.4211C383.603 42.4458 387.831 45.1827 390.27 46.9536C391.408 47.7585 392.383 48.4025 393.034 48.8855C393.684 49.3684 394.009 49.5294 394.172 49.6904C398.725 52.9102 400.838 56.774 400.838 61.1208ZM388.806 36.6502C388.806 33.1084 387.18 31.1765 383.766 30.6935V22.322C394.822 22.644 400.351 27.4737 400.351 36.6502H388.806Z" fill="#231F20"/>
<path d="M404.902 22.161H410.268V27.1517H404.902V22.161Z" fill="#231F20"/>
<path d="M404.74 34.7183C404.74 32.1424 406.041 27.9567 412.87 27.9567C419.862 27.9567 421 32.1424 421 34.7183C421 36.8112 420.187 38.4211 418.886 39.709L415.634 36.6502C416.285 36.0062 416.61 35.5232 416.61 34.8793C416.61 34.2353 416.447 33.9133 415.96 33.4303C415.309 32.9474 414.334 32.6254 412.87 32.6254C411.407 32.6254 410.269 32.7864 409.781 33.4303C409.293 33.7523 409.13 34.2353 409.13 34.8793C409.13 35.6842 409.456 36.1672 410.106 36.6502L406.854 39.709C405.391 38.4211 404.74 36.8112 404.74 34.7183Z" fill="#231F20"/>
<path d="M406.691 50.1734C405.716 49.2075 404.578 47.7585 404.74 45.3437C404.74 42.9288 405.878 41.4799 406.854 40.514C408.317 39.226 409.781 38.9041 413.033 38.9041C416.122 38.9041 417.748 39.387 419.211 40.514C420.187 41.4799 421.325 42.9288 421.163 45.3437C421.163 47.7585 420.024 49.2075 419.049 50.1734C417.585 51.4613 415.959 51.7833 412.87 51.7833C409.618 51.7833 408.155 51.4613 406.691 50.1734ZM416.122 46.6316C416.447 46.3096 416.61 45.9876 416.61 45.3437C416.61 44.8607 416.447 44.3777 416.122 44.0558C415.472 43.4118 414.333 43.4118 412.87 43.4118C411.244 43.4118 410.106 43.4118 409.618 44.0558C409.293 44.3777 409.13 44.6997 409.13 45.3437C409.13 45.8267 409.293 46.3096 409.618 46.6316C410.269 47.2756 411.407 47.2756 412.87 47.2756C414.333 47.2756 415.472 47.2756 416.122 46.6316Z" fill="#231F20"/>
<path d="M404.74 69.3313H414.334C416.122 69.3313 416.61 68.0434 416.61 67.5604C416.61 66.9165 416.285 65.7895 414.496 65.6285H404.903V61.1208H414.496C416.285 61.1208 416.772 59.8329 416.772 59.3499C416.772 58.7059 416.447 57.579 414.659 57.418H405.065V52.9103H421V57.418H419.699C420.675 58.384 421.163 59.6719 421.163 60.9598C421.163 62.4087 420.675 63.6967 419.374 64.6626C420.512 65.9505 421 67.2384 421 68.8484C421 70.2973 420.512 71.5852 419.537 72.3901C418.236 73.6781 416.61 74.0001 414.984 74.0001H404.74V69.3313Z" fill="#231F20"/>
</g>
<path d="M41.571 14.6262L37.893 18.0824V33.5333L31.1498 26.8244L26.6543 31.0937L33.8062 37.3961L29.515 41.8687H39.3234L43.2058 45.5282L46.271 41.8687H55.2617L50.9706 37.3961L56.6921 31.0937L52.1966 26.8244L45.045 33.5333V18.0824L41.571 14.6262Z" fill="#F0540F" stroke="#F0540F"/>
<path d="M45.6992 49.5216L49.1605 53.1939H64.6345L57.9156 59.9272L62.1913 64.4159L68.5031 57.2746L72.9824 61.5593V51.7658L76.6473 47.8891L72.9824 44.8285V35.851L68.5031 40.1357L62.1913 34.4229L57.9156 38.9116L64.6345 46.0529H49.1605L45.6992 49.5216Z" fill="black" fill-opacity="0.85"/>
<path d="M43.6504 84.1095L47.3284 80.6533V65.2024L54.0716 71.9113L58.5671 67.642L51.4152 61.3396L55.7063 56.867H45.898L42.0156 53.2075L38.9505 56.867H29.9597L34.2508 61.3396L28.5293 67.642L33.0248 71.9113L40.1765 65.2024V80.6533L43.6504 84.1095Z" fill="black" fill-opacity="0.85"/>
<path d="M39.3288 49.3172L35.9694 45.6449H20.9504L27.4718 38.9116L23.3218 34.4229L17.1957 41.5642L12.8481 37.2794V47.073L9.29102 50.9497L12.8481 54.0103V62.9878L17.1957 58.7031L23.3218 64.4159L27.4718 59.9272L20.9504 52.7859H35.9694L39.3288 49.3172Z" fill="black" fill-opacity="0.85"/>
<path d="M40.75 2.74241C41.8329 2.1172 43.1671 2.1172 44.25 2.74241L81.75 24.3931C82.8329 25.0183 83.5 26.1737 83.5 27.4241V70.7254C83.5 71.9758 82.8329 73.1313 81.75 73.7565L44.25 95.4071C43.1671 96.0323 41.8329 96.0323 40.75 95.4071L3.24999 73.7565C2.16709 73.1313 1.5 71.9758 1.5 70.7254V27.4241C1.5 26.1737 2.16709 25.0183 3.25 24.393L40.75 2.74241Z" stroke="black" stroke-width="3" stroke-linejoin="round"/>
<path d="M42.3353 7.2649C42.49 7.17558 42.6806 7.17559 42.8353 7.2649L78.6686 27.9533C78.8233 28.0426 78.9186 28.2077 78.9186 28.3863V69.7631C78.9186 69.9417 78.8233 70.1068 78.6686 70.1961L42.8353 90.8845C42.6806 90.9738 42.49 90.9738 42.3353 90.8845L6.50195 70.1961C6.34725 70.1068 6.25195 69.9417 6.25195 69.7631V28.3863C6.25195 28.2077 6.34725 28.0426 6.50195 27.9533L42.3353 7.2649Z" stroke="black" stroke-linejoin="round"/>
<defs>
<clipPath id="clip0">
<rect width="313" height="52" fill="white" transform="translate(108 22)"/>
</clipPath>
</defs>
</svg>
